<?xml version="1.0" encoding="UTF-8" standalone="no"?>
<svg
   xmlns:dc="http://purl.org/dc/elements/1.1/"
   xmlns:cc="http://creativecommons.org/ns#"
   xmlns:rdf="http://www.w3.org/1999/02/22-rdf-syntax-ns#"
   xmlns:svg="http://www.w3.org/2000/svg"
   xmlns="http://www.w3.org/2000/svg"
   viewBox="0 0 692.34668 294.48001"
   height="294.48001"
   width="692.34668"
   xml:space="preserve"
   id="svg2"
   version="1.1"><metadata
     id="metadata8"><rdf:RDF><cc:Work
         rdf:about=""><dc:format>image/svg+xml</dc:format><dc:type
           rdf:resource="http://purl.org/dc/dcmitype/StillImage" /></cc:Work></rdf:RDF></metadata><defs
     id="defs6"><clipPath
       id="clipPath20"
       clipPathUnits="userSpaceOnUse"><path
         id="path18"
         d="M 0,2208.61 V 0 h 5192.58 v 2208.61 z" /></clipPath></defs><g
     transform="matrix(1.3333333,0,0,-1.3333333,0,294.48)"
     id="g10"><g
       transform="scale(0.1)"
       id="g12"><g
         id="g14"><g
           clip-path="url(#clipPath20)"
           id="g16"><g
             transform="scale(10)"
             id="g22"><text
               id="text26"
               style="font-variant:normal;font-weight:normal;font-size:20.9178009px;font-family:'Century Schoolbook L';-inkscape-font-specification:CenturyGothic;writing-mode:lr-tb;fill:#918f90;fill-opacity:1;fill-rule:nonzero;stroke:none"
               transform="matrix(1,0,0,-1,76.4566,9.23398)"><tspan
                 id="tspan24"
                 y="0"
                 x="0 11.004395 32.753407 54.594704 74.566895 91.2603 106.4419 125.41261 136.41701 158.16599 174.1035">INDUSTRIAL </tspan></text>
</g><path
             id="path28"
             style="fill:none;stroke:#918f90;stroke-width:5.95179987;stroke-linecap:butt;stroke-linejoin:miter;stroke-miterlimit:4;stroke-dasharray:none;stroke-opacity:1"
             d="M 780.691,92.3398 H 795.77 V 242.668 h -15.079 z m 127.84,0 V 206.23 L 1007.98,92.3398 h 3.35 V 242.668 H 996.25 V 127.73 l -99.859,114.938 h -3.36 V 92.3398 Z m 249.729,0 c 18.64,0 33.29,2.7188 43.56,8.1722 10.45,5.437 18.83,13.812 25.33,25.328 6.48,11.515 9.84,24.703 9.84,39.781 0,17.375 -4.19,32.453 -12.36,45.016 -8.17,12.562 -19.68,21.562 -34.12,26.593 -10.27,3.547 -26.6,5.438 -49,5.438 h -31.19 V 92.3398 Z m -33.5,135.6722 h 10.69 c 21.56,0 36.84,-1.469 46.26,-4.188 12.56,-3.984 22.19,-10.89 29.31,-21.14 6.91,-10.469 10.47,-22.829 10.47,-37.266 0,-13.828 -3.14,-25.547 -9.62,-35.188 -6.5,-9.421 -15.28,-16.109 -26.6,-19.671 -8.17,-2.719 -22.4,-3.985 -43.12,-3.985 h -17.39 z m 204.6,-76 c 0,-15.282 0.84,-25.969 2.71,-31.828 2.94,-9.422 8.8,-17.172 17.38,-23.0317 8.8,-5.6562 19.06,-8.5781 31.2,-8.5781 11.31,0 20.74,3.1406 28.69,9.2031 7.95,6.0777 13.19,13.4067 15.7,21.5777 2.72,8.375 3.97,19.25 3.97,32.657 v 90.656 h -15.06 v -90.859 c 0,-11.735 -0.42,-19.688 -1.47,-23.454 -1.47,-5.234 -3.77,-9.843 -6.91,-13.609 -2.93,-3.766 -6.7,-6.703 -11.31,-8.797 -4.61,-2.094 -9.42,-3.14 -14.45,-3.14 -5.64,0 -11.3,1.25 -16.95,3.984 -5.66,2.719 -9.85,6.062 -12.57,10.047 -2.72,3.969 -4.39,9 -5.23,14.859 -0.42,2.719 -0.63,9.422 -0.63,20.11 v 90.859 h -15.07 z m 204.1,-56.1097 c 7.55,-4.8125 15.71,-7.3281 24.93,-7.3281 11.93,0 21.98,3.9688 30.36,12.1408 8.17,7.953 12.36,17.375 12.36,28.265 0,7.532 -2.52,15.079 -7.33,22.61 -4.83,7.547 -13.83,16.125 -26.82,25.75 -11.09,8.172 -17.57,12.984 -19.46,15.078 -3.77,3.562 -6.29,6.906 -7.54,9.844 -1.46,3.14 -2.09,6.281 -2.09,9.625 0,5.234 1.88,9.843 5.86,13.609 3.77,3.563 8.8,5.453 14.86,5.453 4.83,0 9.22,-1.265 13.2,-3.562 3.97,-2.516 8.78,-7.328 14.44,-14.875 l 12.36,9.218 c -6.91,9.422 -13.41,15.907 -19.69,19.469 -6.06,3.563 -12.76,5.235 -19.89,5.235 -6.7,0 -12.98,-1.469 -18.62,-4.61 -5.66,-3.14 -10.07,-7.328 -13.21,-12.765 -3.14,-5.438 -4.81,-11.313 -4.81,-17.797 0,-8.375 2.72,-15.907 7.95,-23.032 3.14,-4.187 10.89,-11.093 23.46,-20.515 12.56,-9.422 21.15,-17.375 25.97,-24.078 3.34,-4.813 5.01,-9.844 5.01,-14.86 0,-4.406 -1.25,-8.593 -3.55,-12.562 -2.31,-3.985 -5.65,-7.125 -10.06,-9.422 -4.39,-2.313 -9.2,-3.563 -14.23,-3.563 -11.72,0 -22.19,8.375 -31.19,24.907 l -12.78,-7.735 c 6.28,-11.312 13.19,-19.687 20.51,-24.4997 z M 1714.02,228.012 V 92.3398 h 15.29 V 228.012 h 33.5 v 14.656 h -82.29 V 228.012 Z M 1848.03,92.3398 h 15.08 v 69.9372 h 8.59 l 54.22,-69.9372 h 18.42 l -54.02,69.9372 c 12.57,0 22.41,1.672 29.54,4.813 7.32,3.14 12.76,7.953 16.53,14.031 3.98,6.281 5.86,13.391 5.86,21.563 0,9.828 -2.72,18.203 -8.38,24.906 -5.64,6.703 -12.97,10.89 -21.76,12.984 -6.08,1.469 -17.38,2.094 -34.13,2.094 h -29.95 z m 41.67,135.6722 c 10.26,0 17.8,-0.844 22.19,-2.719 4.4,-1.672 7.97,-4.609 10.68,-8.797 2.72,-4.187 4.19,-8.578 4.19,-13.812 0,-5.032 -1.26,-9.844 -3.98,-14.032 -2.72,-4.187 -6.49,-7.125 -11.3,-9 -4.83,-1.89 -12.36,-2.937 -22.41,-2.937 l -25.96,0.219 v 51.078 z M 2034.82,92.3398 h 15.07 V 242.668 h -15.07 z M 2204.74,242.668 2133.77,92.3398 h 16.75 l 23.44,49.4062 h 65.12 l 23.44,-49.4062 h 16.12 L 2208.5,242.668 Z m 27.64,-86.266 h -51.5 l 25.75,54.657 z m 132.07,-64.0622 h 73.06 v 14.6562 h -57.98 v 135.672 h -15.08 z" /><g
             transform="scale(10)"
             id="g30"><text
               id="text34"
               style="font-variant:normal;font-weight:normal;font-size:20.9178009px;font-family:'Century Schoolbook L';-inkscape-font-specification:CenturyGothic;writing-mode:lr-tb;fill:#918f90;fill-opacity:1;fill-rule:nonzero;stroke:none"
               transform="matrix(1,0,0,-1,262.627,9.23398)"><tspan
                 id="tspan32"
                 y="0"
                 x="0 23.281301 47.736408 69.485397 90.448273 107.93848 126.59279 151.04887 170.01956">CONVEYORS</tspan></text>
</g><path
             id="path36"
             style="fill:none;stroke:#918f90;stroke-width:5.95179987;stroke-linecap:butt;stroke-linejoin:miter;stroke-miterlimit:4;stroke-dasharray:none;stroke-opacity:1"
             d="m 2756.71,238.059 c -11.32,5.656 -23.86,8.375 -37.89,8.375 -23.25,0 -42.72,-7.532 -58,-22.61 -15.5,-14.859 -23.24,-33.5 -23.24,-55.484 0,-20.938 6.28,-38.735 19.05,-53.594 15.28,-17.3749 36.01,-26.1718 62.39,-26.1718 13.83,0 26.17,2.5156 37.48,7.75 11.3,5.2348 20.52,12.5628 28.05,22.1878 l -11.94,9 c -14.01,-16.532 -31.61,-24.703 -52.75,-24.703 -19.06,0 -34.97,6.078 -47.53,18.421 -12.56,12.36 -18.84,27.641 -18.84,45.86 0,12.14 2.72,23.031 8.37,32.875 5.66,9.625 13.61,17.375 23.88,23.234 10.05,5.656 21.14,8.578 33.28,8.578 10.89,0 20.94,-2.093 30.16,-6.484 9.2,-4.406 16.95,-10.891 23.43,-19.469 l 11.94,9 c -7.11,10.047 -16.53,17.797 -27.84,23.235 z m 153.04,-2.094 c -11.94,-6.906 -21.56,-16.531 -28.48,-28.891 -6.91,-12.344 -10.47,-25.75 -10.47,-40.203 0,-21.766 7.75,-40.187 23.03,-55.484 15.29,-15.2815 34.14,-22.8128 56.33,-22.8128 21.98,0 40.61,7.75 55.9,23.0308 15.28,15.282 23.03,33.922 23.03,55.907 0,22.187 -7.75,41.031 -23.03,56.109 -15.29,15.281 -34.34,22.813 -57.15,22.813 -14.03,0 -27.02,-3.563 -39.16,-10.469 z m 72.02,-12.766 c 10.04,-5.859 18.01,-13.609 23.45,-23.234 5.66,-9.641 8.37,-20.531 8.37,-32.453 0,-11.938 -2.71,-22.828 -8.37,-32.672 -5.44,-9.844 -13.19,-17.375 -23.24,-23.031 -9.84,-5.657 -20.73,-8.579 -32.25,-8.579 -17.57,0 -32.45,6.063 -44.79,18.422 -12.36,12.36 -18.64,27.422 -18.64,45.219 0,12.156 2.72,23.031 8.37,32.875 5.66,9.844 13.41,17.594 23.45,23.453 9.85,5.656 20.32,8.578 31.61,8.578 11.32,0 21.99,-2.922 32.04,-8.578 z M 3137.55,92.3398 V 206.23 L 3237,92.3398 h 3.35 V 242.668 h -15.08 V 127.73 l -99.86,114.938 h -3.36 V 92.3398 Z m 254.96,0 h 3.36 l 65.53,150.3282 h -16.33 l -50.67,-116.406 -50.04,116.406 h -16.33 z m 156.66,0 h 85.42 v 14.6562 h -70.34 v 59.25 h 70.34 v 14.656 h -70.34 v 47.11 h 70.98 v 14.656 h -86.06 z m 211.54,71.8122 V 92.3398 h 15.08 v 71.8122 l 47.73,78.516 h -17.17 l -38.09,-62.813 -38.96,62.813 h -17.17 z m 182.16,71.813 c -11.94,-6.906 -21.56,-16.531 -28.48,-28.891 -6.91,-12.344 -10.47,-25.75 -10.47,-40.203 0,-21.766 7.75,-40.187 23.03,-55.484 15.3,-15.2815 34.14,-22.8128 56.33,-22.8128 21.98,0 40.61,7.75 55.9,23.0308 15.28,15.282 23.03,33.922 23.03,55.907 0,22.187 -7.75,41.031 -23.03,56.109 -15.29,15.281 -34.34,22.813 -57.15,22.813 -14.03,0 -27.02,-3.563 -39.16,-10.469 z m 72.02,-12.766 c 10.04,-5.859 18.01,-13.609 23.45,-23.234 5.66,-9.641 8.37,-20.531 8.37,-32.453 0,-11.938 -2.71,-22.828 -8.37,-32.672 -5.44,-9.844 -13.19,-17.375 -23.23,-23.031 -9.85,-5.657 -20.74,-8.579 -32.25,-8.579 -17.58,0 -32.46,6.063 -44.8,18.422 -12.36,12.36 -18.64,27.422 -18.64,45.219 0,12.156 2.72,23.031 8.37,32.875 5.66,9.844 13.41,17.594 23.46,23.453 9.84,5.656 20.31,8.578 31.61,8.578 11.31,0 21.98,-2.922 32.03,-8.578 z M 4155.81,92.3398 h 15.08 v 69.9372 h 8.59 l 54.22,-69.9372 h 18.42 l -54.01,69.9372 c 12.56,0 22.4,1.672 29.53,4.813 7.32,3.14 12.76,7.953 16.53,14.031 3.98,6.281 5.86,13.391 5.86,21.563 0,9.828 -2.72,18.203 -8.38,24.906 -5.64,6.703 -12.97,10.89 -21.76,12.984 -6.08,1.469 -17.38,2.094 -34.13,2.094 h -29.95 z m 41.67,135.6722 c 10.27,0 17.8,-0.844 22.19,-2.719 4.4,-1.672 7.97,-4.609 10.69,-8.797 2.71,-4.187 4.18,-8.578 4.18,-13.812 0,-5.032 -1.26,-9.844 -3.98,-14.032 -2.72,-4.187 -6.49,-7.125 -11.3,-9 -4.83,-1.89 -12.36,-2.937 -22.4,-2.937 l -25.97,0.219 v 51.078 z M 4349.7,95.9023 c 7.54,-4.8125 15.7,-7.3281 24.92,-7.3281 11.93,0 21.98,3.9688 30.36,12.1408 8.17,7.953 12.36,17.375 12.36,28.265 0,7.532 -2.52,15.079 -7.33,22.61 -4.83,7.547 -13.83,16.125 -26.81,25.75 -11.1,8.172 -17.58,12.984 -19.47,15.078 -3.77,3.562 -6.28,6.906 -7.53,9.844 -1.47,3.14 -2.1,6.281 -2.1,9.625 0,5.234 1.88,9.843 5.86,13.609 3.77,3.563 8.8,5.453 14.86,5.453 4.83,0 9.22,-1.265 13.2,-3.562 3.97,-2.516 8.78,-7.328 14.44,-14.875 l 12.36,9.218 c -6.91,9.422 -13.41,15.907 -19.69,19.469 -6.06,3.563 -12.76,5.235 -19.89,5.235 -6.7,0 -12.98,-1.469 -18.62,-4.61 -5.66,-3.14 -10.07,-7.328 -13.21,-12.765 -3.14,-5.438 -4.81,-11.313 -4.81,-17.797 0,-8.375 2.72,-15.907 7.95,-23.032 3.15,-4.187 10.9,-11.093 23.46,-20.515 12.56,-9.422 21.15,-17.375 25.97,-24.078 3.34,-4.813 5.01,-9.844 5.01,-14.86 0,-4.406 -1.25,-8.593 -3.54,-12.562 -2.32,-3.985 -5.66,-7.125 -10.07,-9.422 -4.39,-2.313 -9.2,-3.563 -14.23,-3.563 -11.72,0 -22.19,8.375 -31.19,24.907 l -12.78,-7.735 c 6.28,-11.312 13.19,-19.687 20.52,-24.4997 z" /><path
             id="path38"
             style="fill:none;stroke:#1b458f;stroke-width:39.22100067;stroke-linecap:butt;stroke-linejoin:miter;stroke-miterlimit:4;stroke-dasharray:none;stroke-opacity:1"
             d="M 81.2812,353.352 H 5104.6" /><g
             transform="scale(10)"
             id="g40"><text
               id="text44"
               style="font-variant:normal;font-weight:bold;font-size:31.67340088px;font-family:Eurostile;-inkscape-font-specification:Eurostile-BoldExtendedTwo;writing-mode:lr-tb;fill:#918f90;fill-opacity:1;fill-rule:nonzero;stroke:none"
               transform="matrix(1,0,0,-1,4.97617,45.7059)"><tspan
                 id="tspan42"
                 y="0"
                 x="0 32.844734 68.065559 101.70271 129.89203 163.52919 193.27051 226.11526 262.064 277.71063 310.55536 343.43237 376.2771 404.46643 434.20773 476.46005">SOUTHERN SYSTEMS</tspan></text>
</g><path
             id="path46"
             style="fill:#1b458f;fill-opacity:1;fill-rule:nonzero;stroke:none"
             d="m 3379.34,1549.34 c 0,-331.28 -353.01,-599.828 -788.5,-599.828 -435.49,0 -788.52,268.548 -788.52,599.828 0,331.24 353.03,599.77 788.52,599.77 435.49,0 788.5,-268.53 788.5,-599.77" /><path
             id="path48"
             style="fill:none;stroke:#918f90;stroke-width:15.83670044;stroke-linecap:butt;stroke-linejoin:miter;stroke-miterlimit:4;stroke-dasharray:none;stroke-opacity:1"
             d="m 3439.39,1548.72 c 0,-360.07 -380.79,-651.958 -850.58,-651.958 -469.77,0 -850.6,291.888 -850.6,651.958 0,360.1 380.83,651.97 850.6,651.97 469.79,0 850.58,-291.87 850.58,-651.97 z" /><path
             id="path50"
             style="fill:#ffffff;fill-opacity:1;fill-rule:nonzero;stroke:none"
             d="m 1936.88,1464.23 h 133.92 c 0.62,-46.46 19.33,-50.1 57.93,-50.1 h 164.12 c 28.35,0 57.3,3.05 57.3,36.81 0,38.01 -15.69,40.45 -188.24,40.45 -201.51,0 -224.42,24.09 -224.42,131.49 0,79.05 7.24,139.97 176.17,139.97 h 187.02 c 154.45,0 168.93,-52.48 168.93,-129.08 v -13.89 h -133.93 c 0,31.97 -3.63,45.26 -65.18,45.26 h -148.4 c -30.18,0 -50.68,-10.28 -50.68,-33.81 0,-38.01 16.29,-39.19 159.9,-38.6 208.12,0.59 256.39,-12.07 256.39,-139.37 0,-117.65 -39.83,-136.97 -217.79,-136.97 h -162.3 c -121.86,0 -170.74,22.95 -170.74,117.67 v 30.17" /><path
             id="path52"
             style="fill:#ffffff;fill-opacity:1;fill-rule:nonzero;stroke:none"
             d="m 2512.14,1464.23 h 133.93 c 0.6,-46.46 19.3,-50.1 57.9,-50.1 h 164.14 c 28.33,0 57.29,3.05 57.29,36.81 0,38.01 -15.68,40.45 -188.23,40.45 -201.51,0 -224.43,24.09 -224.43,131.49 0,79.05 7.25,139.97 176.16,139.97 h 187.05 c 154.43,0 168.89,-52.48 168.89,-129.08 v -13.89 h -133.9 c 0,31.97 -3.63,45.26 -65.18,45.26 h -148.43 c -30.16,0 -50.66,-10.28 -50.66,-33.81 0,-38.01 16.27,-39.19 159.87,-38.6 208.16,0.59 256.43,-12.07 256.43,-139.37 0,-117.65 -39.83,-136.97 -217.81,-136.97 h -162.3 c -121.83,0 -170.72,22.95 -170.72,117.67 v 30.17" /><path
             id="path54"
             style="fill:#ffffff;fill-opacity:1;fill-rule:nonzero;stroke:none"
             d="m 3089.87,1321.22 h 133.949 v 436.816 H 3089.87 Z" /></g></g></g></g></svg>